<?xml version="1.0" encoding="UTF-8"?>
<!DOCTYPE svg PUBLIC "-//W3C//DTD SVG 1.1//EN" "http://www.w3.org/Graphics/SVG/1.1/DTD/svg11.dtd">
<svg version="1.1" xmlns="http://www.w3.org/2000/svg" xmlns:xlink="http://www.w3.org/1999/xlink" x="0" y="0" width="935.433" height="708.661" viewBox="0, 0, 935.433, 708.661">
  <g id="Layer_3">
    <path d="M799.925,341.687 C797.445,341.687 795.434,339.582 795.434,336.984 C795.434,334.386 797.445,332.281 799.925,332.281 C802.406,332.281 804.417,334.386 804.417,336.984 C804.417,339.582 802.406,341.687 799.925,341.687 z" fill="#FFFFFF"/>
    <path d="M295.71,304.359 C293.23,304.359 291.219,302.253 291.219,299.655 C291.219,297.058 293.23,294.952 295.71,294.952 C298.191,294.952 300.201,297.058 300.201,299.655 C300.201,302.253 298.191,304.359 295.71,304.359 z" fill="#FFFFFF"/>
    <path d="M73.183,279.928 C70.703,279.928 68.692,277.822 68.692,275.224 C68.692,272.627 70.703,270.521 73.183,270.521 C75.664,270.521 77.674,272.627 77.674,275.224 C77.674,277.822 75.664,279.928 73.183,279.928 z" fill="#FFFFFF"/>
    <path d="M509.838,156.27 C507.357,156.27 505.347,154.164 505.347,151.567 C505.347,148.969 507.357,146.863 509.838,146.863 C512.318,146.863 514.329,148.969 514.329,151.567 C514.329,154.164 512.318,156.27 509.838,156.27 z" fill="#FFFFFF"/>
    <path d="M362.347,91.729 C359.867,91.729 357.856,89.623 357.856,87.025 C357.856,84.428 359.867,82.322 362.347,82.322 C364.827,82.322 366.838,84.428 366.838,87.025 C366.838,89.623 364.827,91.729 362.347,91.729 z" fill="#FFFFFF"/>
    <path d="M740.762,82.322 C738.281,82.322 736.271,80.216 736.271,77.619 C736.271,75.021 738.281,72.915 740.762,72.915 C743.242,72.915 745.253,75.021 745.253,77.619 C745.253,80.216 743.242,82.322 740.762,82.322 z" fill="#FFFFFF"/>
    <path d="M600.603,381.16 C598.122,381.16 596.112,379.054 596.112,376.457 C596.112,373.859 598.122,371.753 600.603,371.753 C603.083,371.753 605.094,373.859 605.094,376.457 C605.094,379.054 603.083,381.16 600.603,381.16 z" fill="#FFFFFF"/>
    <path d="M127.392,32.53 C109.339,46.911 100.691,68.366 100.137,89.915 C100.284,116.488 114.746,142.281 140.022,155.782 C134.789,156.297 137.268,156.155 132.591,156.27 C97.301,156.27 68.692,128.51 68.692,94.266 C69.062,62.694 92.682,35.945 127.392,32.53 z" fill="#FFFFFF"/>
  </g>
  <g id="Layer_4" display="none">
    <path d="M546.083,32.53 C545.463,32.53 544.96,32.036 544.96,31.426 C544.96,30.817 545.463,30.322 546.083,30.322 C546.704,30.322 547.207,30.817 547.207,31.426 C547.207,32.036 546.704,32.53 546.083,32.53 z" fill="#FFFFFF"/>
    <path d="M516.877,165 C516.256,165 515.754,164.506 515.754,163.896 C515.754,163.286 516.256,162.792 516.877,162.792 C517.497,162.792 518,163.286 518,163.896 C518,164.506 517.497,165 516.877,165 z" fill="#FFFFFF"/>
    <path d="M625.834,232.644 C625.214,232.644 624.711,232.15 624.711,231.54 C624.711,230.931 625.214,230.437 625.834,230.437 C626.455,230.437 626.957,230.931 626.957,231.54 C626.957,232.15 626.455,232.644 625.834,232.644 z" fill="#FFFFFF"/>
    <path d="M366.877,296 C366.256,296 365.753,295.506 365.753,294.896 C365.753,294.286 366.256,293.792 366.877,293.792 C367.497,293.792 368,294.286 368,294.896 C368,295.506 367.497,296 366.877,296 z" fill="#FFFFFF"/>
    <path d="M305.511,460.762 C304.891,460.762 304.388,460.268 304.388,459.658 C304.388,459.048 304.891,458.554 305.511,458.554 C306.132,458.554 306.635,459.048 306.635,459.658 C306.635,460.268 306.132,460.762 305.511,460.762 z" fill="#FFFFFF"/>
    <path d="M155.77,338.088 C155.149,338.088 154.647,337.594 154.647,336.984 C154.647,336.374 155.149,335.88 155.77,335.88 C156.39,335.88 156.893,336.374 156.893,336.984 C156.893,337.594 156.39,338.088 155.77,338.088 z" fill="#FFFFFF"/>
    <path d="M142.717,446.704 C142.097,446.704 141.594,446.21 141.594,445.6 C141.594,444.991 142.097,444.496 142.717,444.496 C143.337,444.496 143.84,444.991 143.84,445.6 C143.84,446.21 143.337,446.704 142.717,446.704 z" fill="#FFFFFF"/>
    <path d="M57.254,469.121 C56.446,469.121 55.79,468.448 55.79,467.618 C55.79,466.788 56.446,466.115 57.254,466.115 C58.063,466.115 58.718,466.788 58.718,467.618 C58.718,468.448 58.063,469.121 57.254,469.121 z" fill="#FFFFFF"/>
    <path d="M230.877,133 C230.256,133 229.754,132.506 229.754,131.896 C229.754,131.286 230.256,130.792 230.877,130.792 C231.497,130.792 232,131.286 232,131.896 C232,132.506 231.497,133 230.877,133 z" fill="#FFFFFF"/>
    <path d="M907.877,171 C907.256,171 906.754,170.506 906.754,169.896 C906.754,169.286 907.256,168.792 907.877,168.792 C908.497,168.792 909,169.286 909,169.896 C909,170.506 908.497,171 907.877,171 z" fill="#FFFFFF"/>
    <path d="M649.877,156 C649.256,156 648.754,155.506 648.754,154.896 C648.754,154.286 649.256,153.792 649.877,153.792 C650.497,153.792 651,154.286 651,154.896 C651,155.506 650.497,156 649.877,156 z" fill="#FFFFFF"/>
    <path d="M705.877,517 C705.256,517 704.754,516.506 704.754,515.896 C704.754,515.286 705.256,514.792 705.877,514.792 C706.497,514.792 707,515.286 707,515.896 C707,516.506 706.497,517 705.877,517 z" fill="#FFFFFF"/>
    <path d="M853.877,372 C853.256,372 852.754,371.506 852.754,370.896 C852.754,370.286 853.256,369.792 853.877,369.792 C854.497,369.792 855,370.286 855,370.896 C855,371.506 854.497,372 853.877,372 z" fill="#FFFFFF"/>
    <path d="M458.877,404 C458.256,404 457.753,403.506 457.753,402.896 C457.753,402.286 458.256,401.792 458.877,401.792 C459.497,401.792 460,402.286 460,402.896 C460,403.506 459.497,404 458.877,404 z" fill="#FFFFFF"/>
    <path d="M128.877,117 C128.256,117 127.754,116.506 127.754,115.896 C127.754,115.286 128.256,114.792 128.877,114.792 C129.497,114.792 130,115.286 130,115.896 C130,116.506 129.497,117 128.877,117 z" fill="#FFFFFF"/>
  </g>
  <g id="Layer_1" display="none">
    <path d="M0,574.127 L106.011,521.717 L170.332,526.482 L200.111,476.454 L260.859,588.421 L302.548,519.335 L370.443,556.26 L441.911,515.761 L536.011,553.878 L600.332,516.952 L661.08,568.171 L699.196,532.437 L770.664,497.894 L852.852,537.202 L935.433,474.072 L935.433,708.661 L0,708.661 z" fill="#001454"/>
  </g>
  <g id="Layer_2" display="none">
    <path d="M934.158,606.78 L828.436,567.091 L764.29,570.699 L734.593,532.814 L674.011,617.605 L632.435,565.287 L564.725,593.25 L493.452,562.581 L399.609,591.446 L335.463,563.483 L274.88,602.27 L236.868,575.209 L165.595,549.05 L83.63,578.817 L1.275,531.01 L1.275,708.661 L934.158,708.661 z" fill="#001C6B"/>
  </g>
  <g id="Layer_5" display="none">
    <path d="M376.492,210.777 L376.492,197.698 L341.195,197.698 Q334.515,197.698 331.176,194.675 Q327.836,191.652 327.836,186.448 Q327.836,185.112 328.328,183.741 Q328.82,182.37 329.804,180.859 Q330.789,179.347 331.844,177.941 Q332.898,176.534 334.445,174.495 L371.711,124.644 Q375.367,119.722 377.722,117.507 Q380.078,115.292 383.383,115.292 Q394.07,115.292 394.07,127.527 L394.07,181.948 L397.094,181.948 Q402.508,181.948 405.777,183.425 Q409.047,184.902 409.047,189.894 Q409.047,193.972 406.375,195.835 Q403.703,197.698 398.359,197.698 L394.07,197.698 L394.07,210.777 Q394.07,216.191 391.679,218.827 Q389.289,221.464 385.281,221.464 Q381.344,221.464 378.918,218.757 Q376.492,216.05 376.492,210.777 z M346.258,181.948 L376.492,181.948 L376.492,141.097 z" fill-opacity="0" stroke="#FFFFFF" stroke-width="3"/>
    <path d="M576.043,210.777 L576.043,197.698 L540.746,197.698 Q534.066,197.698 530.726,194.675 Q527.386,191.652 527.386,186.448 Q527.386,185.112 527.879,183.741 Q528.371,182.37 529.355,180.859 Q530.34,179.347 531.394,177.941 Q532.449,176.534 533.996,174.495 L571.261,124.644 Q574.918,119.722 577.273,117.507 Q579.629,115.292 582.933,115.292 Q593.621,115.292 593.621,127.527 L593.621,181.948 L596.644,181.948 Q602.058,181.948 605.328,183.425 Q608.597,184.902 608.597,189.894 Q608.597,193.972 605.925,195.835 Q603.254,197.698 597.91,197.698 L593.621,197.698 L593.621,210.777 Q593.621,216.191 591.23,218.827 Q588.84,221.464 584.832,221.464 Q580.894,221.464 578.468,218.757 Q576.043,216.05 576.043,210.777 z M545.808,181.948 L576.043,181.948 L576.043,141.097 z" fill-opacity="0" stroke="#FFFFFF" stroke-width="3"/>
    <path d="M501.047,198.642 Q501.047,210.174 499.64,218.47 Q498.234,226.767 494.437,233.517 Q489.656,241.814 482.062,246.314 Q474.469,250.814 465.187,250.814 Q454.5,250.814 446.027,244.767 Q437.554,238.72 433.265,228.033 Q431.086,222.197 430.066,215.131 Q429.047,208.064 429.047,199.838 Q429.047,189.22 430.172,180.713 Q431.297,172.205 433.687,166.088 Q437.836,155.963 445.746,150.654 Q453.656,145.345 464.625,145.345 Q471.867,145.345 477.773,147.701 Q483.679,150.056 488.144,154.592 Q492.609,159.127 495.703,165.806 Q501.047,177.408 501.047,198.642 z M481.781,197.236 Q481.781,184.369 480.234,176.177 Q478.687,167.986 475.031,163.802 Q471.375,159.619 464.906,159.619 Q455.625,159.619 452.004,168.97 Q448.383,178.322 448.383,197.799 Q448.383,211.017 449.929,219.455 Q451.476,227.892 455.133,232.217 Q458.789,236.541 465.047,236.541 Q471.515,236.541 475.172,232.041 Q478.828,227.541 480.304,219.174 Q481.781,210.806 481.781,197.236 z" fill-opacity="0" stroke="#FFFFFF" stroke-width="4"/>
  </g>
</svg>
